<svg version="1.2" xmlns="http://www.w3.org/2000/svg" viewBox="0 0 48 46" width="48" height="46">
	<title>coin</title>
	<defs>
		<linearGradient id="g1" x2="1" gradientUnits="userSpaceOnUse" gradientTransform="matrix(-0.432,3.844,-3.222,-0.362,28.832,16.01)">
			<stop offset="0" stop-color="#3f3e40"/>
			<stop offset=".09" stop-color="#313032"/>
			<stop offset=".268" stop-color="#1b1b1c"/>
			<stop offset=".464" stop-color="#0c0c0c"/>
			<stop offset=".687" stop-color="#030303"/>
			<stop offset="1" stop-color="#000000"/>
		</linearGradient>
		<linearGradient id="g2" x2="1" gradientUnits="userSpaceOnUse" gradientTransform="matrix(-0.974,6.174,-5.272,-0.832,23.149,17.189)">
			<stop offset="0" stop-color="#3f3e40"/>
			<stop offset=".09" stop-color="#313032"/>
			<stop offset=".268" stop-color="#1b1b1c"/>
			<stop offset=".464" stop-color="#0c0c0c"/>
			<stop offset=".687" stop-color="#030303"/>
			<stop offset="1" stop-color="#000000"/>
		</linearGradient>
	</defs>
	<style>
		.s0 { fill: #0fcbc1 } 
		.s1 { fill: url(#g1) } 
		.s2 { fill: url(#g2) } 
		.s3 { fill: #000000 } 
	</style>
	<path class="s0" d="m21.7 45.5c12.1 0 21.8-9.8 21.8-21.8 0-12-9.7-21.7-21.8-21.7-12 0-21.7 9.7-21.7 21.7 0 12 9.7 21.8 21.7 21.8z"/>
	<path class="s0" d="m26.3 44.3c12 0 21.7-9.7 21.7-21.7 0-12-9.7-21.7-21.7-21.7-12.1 0-21.8 9.7-21.8 21.7 0 12 9.7 21.7 21.8 21.7z"/>
	<path class="s0" d="m47.3 28.2q-0.4 1.5-1 2.9-0.6 1.4-1.4 2.7-0.8 1.3-1.8 2.5-1 1.2-2.1 2.3l-35.8-21.5q0.4-1.5 1-2.9 0.6-1.5 1.4-2.8 0.8-1.3 1.8-2.5 1-1.2 2.1-2.2z"/>
	<path class="s0" d="m26.3 38.9c9 0 16.3-7.3 16.3-16.3 0-9-7.3-16.3-16.3-16.3-9.1 0-16.4 7.3-16.4 16.3 0 9 7.3 16.3 16.4 16.3z"/>
	<path class="s1" d="m29.1 19.1c0.6-0.2 1-0.8 0.8-1.3l-0.2-0.9q-0.1-0.4-0.5-0.6-0.4-0.2-0.8-0.1-0.4 0.1-0.7 0.4-0.2 0.4-0.1 0.8l0.2 0.9c0.1 0.6 0.7 0.9 1.3 0.8z"/>
	<path class="s2" d="m23.3 20.8c0.6-0.2 1-0.8 0.8-1.4l-0.2-0.8q-0.1-0.4-0.5-0.7-0.4-0.2-0.8-0.1-0.4 0.1-0.7 0.5-0.2 0.4-0.1 0.8l0.2 0.9c0.1 0.6 0.7 0.9 1.3 0.8z"/>
	<path class="s3" d="m25.7 25.5c-2.7 0-4.9-1-5-1q-0.1-0.1-0.2-0.2-0.1-0.1-0.2-0.3-0.1-0.1-0.1-0.3 0.1-0.2 0.1-0.3 0.1-0.2 0.2-0.3 0.2-0.1 0.3-0.2 0.2 0 0.4 0 0.1 0 0.3 0c0.3 0.2 7.1 3.3 10.7-3.1q0.2-0.3 0.6-0.4 0.3-0.1 0.6 0.1 0.3 0.2 0.4 0.5 0.1 0.4-0.1 0.7c-2.1 3.9-5.3 4.8-8 4.8z"/>
	<path class="s3" d="m42.1 18.7c-2.2-8.7-11-14.1-19.8-11.9q-1.2 0.3-2.3 0.8-1.1 0.5-2.2 1.1-1.1 0.6-2 1.4-0.9 0.8-1.8 1.7 0.8-0.6 1.6-1.2 0.8-0.5 1.7-1 0.8-0.4 1.7-0.8 1-0.3 1.9-0.6c8.7-2.1 17.6 3.2 19.8 11.9 1.3 5.4-0.2 10.9-3.7 14.7 4.5-3.9 6.6-10 5.1-16.1z"/>
</svg>